<?xml version="1.0" encoding="UTF-8"?>
<!-- Generated by Pixelmator Pro 3.4.3 -->
<svg width="210" height="210" viewBox="0 0 210 210" xmlns="http://www.w3.org/2000/svg">
    <path id="Rectangle" fill="#44308d" fill-rule="evenodd" stroke="none" d="M 0 210 L 210 210 L 210 0 L 0 0 Z"/>
    <g id="Group">
        <path id="path2" fill="#44308d" fill-rule="evenodd" stroke="none" d="M 10.139044 90.242043 C 6.042563 116.575752 11.75393 140.39502 27.455927 161.901199 C 42.823795 182.919037 63.765976 195.605438 90.326721 199.733322 C 116.447662 203.79982 140.054199 198.057037 161.498962 182.766266 C 182.79097 167.018585 195.477356 146.076416 199.573822 119.728424 C 203.64035 93.593185 197.92897 69.788193 182.42543 48.313431 C 166.676331 27.021439 145.948349 14.365036 119.81311 10.298538 C 93.266647 6.154938 69.461639 11.882019 48.398102 27.44693 C 26.89336 43.15036 14.205541 64.091095 10.139044 90.242043 L 10.139044 90.242043 Z"/>
        <path id="Path-copy" fill="#ffffff" fill-rule="evenodd" stroke="none" d="M 106.017578 208.158203 C 100.535904 208.138062 94.945587 207.684479 89.244141 206.796875 C 60.702866 202.361176 38.199341 188.729599 21.685547 166.144531 C 4.812706 143.034729 -1.325768 117.439888 3.076172 89.142578 C 7.445885 61.041656 21.081184 38.538422 44.189453 21.664063 C 66.823624 4.938522 92.403763 -1.216248 120.929688 3.236328 C 149.013733 7.606049 171.287476 21.206268 188.210938 44.085938 C 204.870483 67.161987 211.00647 92.742134 206.636719 120.826172 C 202.234772 149.138824 188.602325 171.642532 165.722656 188.564453 C 147.359604 201.657867 127.522583 208.237198 106.017578 208.158203 Z M 105.863281 194.644531 C 124.551346 194.713181 141.792328 188.997437 157.75 177.619141 C 177.63266 162.913818 189.47937 143.35788 193.304688 118.753906 C 197.102051 94.348595 191.768341 72.117767 177.291016 52.064453 C 162.584366 32.181793 143.22757 20.363739 118.822266 16.566406 C 94.032959 12.697067 71.804077 18.045425 52.134766 32.580078 C 32.053459 47.244064 20.205528 66.798767 16.408203 91.21875 C 12.58287 115.809395 17.915466 138.052124 32.578125 158.134766 C 46.928772 177.761398 66.484467 189.608231 91.287109 193.462891 C 96.24173 194.234222 101.099655 194.627029 105.863281 194.644531 Z"/>
        <path id="path3" fill="#ffffff" fill-rule="evenodd" stroke="none" d="M 136.714661 85.473335 C 132.348007 81.604004 127.099991 78.604004 119.206665 78.247986 C 113.248001 78.247986 107.28801 78.247986 101.32933 78.247986 C 101.32933 79.272003 101.32933 80.281326 101.32933 81.305328 C 101.32933 83.510674 101.32933 85.729332 101.32933 87.933327 C 101.32933 89 101.32933 90.081329 101.32933 91.148003 C 101.357346 95.03067 101.271988 99.026665 101.386658 102.809334 C 101.343994 103.308006 101.457336 103.947998 101.32933 104.359993 C 101.32933 104.900002 101.32933 105.426666 101.32933 105.966667 C 101.32933 107.090668 101.32933 108.214668 101.32933 109.337334 C 101.755997 109.351997 102.139999 109.409332 102.552002 109.451996 C 102.751999 109.451996 102.950668 109.451996 103.149338 109.451996 C 103.533325 109.451996 103.932007 109.451996 104.330673 109.451996 C 104.514664 109.451996 104.714661 109.451996 104.91333 109.451996 C 108.838669 109.124001 111.93866 107.971992 112.408005 104.204002 C 112.408005 103.976006 112.408005 103.734673 112.408005 103.50666 C 112.408005 101.302666 112.408005 99.084007 112.408005 96.878662 C 112.408005 94.375999 112.408005 91.873329 112.408005 89.384003 C 114.370667 89.298668 116.717331 89.298668 118.679993 89.384003 C 123.388 89.398674 126.602661 91.374664 129.119995 93.665337 C 131.637329 95.954674 133.514664 99.239998 133.883987 103.619995 C 134.012009 103.762665 133.898666 104.131996 133.94133 104.359993 C 133.94133 104.686668 133.94133 105.014671 133.94133 105.326668 C 133.898666 105.554665 134.012009 105.938667 133.883987 106.081329 C 133.557327 110.276001 131.863998 113.121338 129.702652 115.496002 C 129.531998 115.709335 129.333328 115.907997 129.119995 116.078667 C 126.587997 118.369331 123.55867 120.161331 118.893326 120.302666 C 112.479996 120.417336 105.751999 120.374664 99.394669 120.260002 C 97.574661 120.260002 95.754669 120.260002 93.933334 120.260002 C 92.796005 120.260002 91.658676 120.260002 90.506668 120.260002 C 90.534668 109.949333 90.477341 99.566673 90.506668 89.256004 L 90.549332 78.561325 C 90.037338 78.561325 88.401337 78.561325 87.889328 78.561325 C 83.594666 78.888 79.839996 79.755997 79.370667 83.907997 C 79.370667 84.420006 79.370667 84.946663 79.370667 85.458672 C 79.370667 85.799995 79.370667 86.141335 79.370667 86.482666 C 79.456009 90.635994 79.456009 95.158669 79.370667 99.32534 C 71.904007 99.32534 64.450668 99.32534 56.984001 99.32534 C 56.984001 94.290672 56.984001 89.256004 56.984001 84.236 C 56.898674 82.941338 56.429329 82.03067 55.861336 81.234665 C 55.661339 81.078659 55.477333 80.893326 55.32 80.694672 C 53.813332 79.5 51.68 78.915985 49.119995 78.774658 C 48.49334 78.774658 47.868004 78.774658 47.242668 78.774658 C 46.816002 78.817322 46.346672 78.830658 45.905334 78.873322 C 45.848 96.409332 45.792 114.230659 45.905334 131.751999 C 46.332001 131.751999 46.758667 131.751999 47.185333 131.751999 C 47.456001 131.751999 47.725334 131.751999 47.996002 131.751999 C 51.338661 131.581329 53.954674 131.069336 55.490662 129.177338 C 57.041336 127.271996 56.727997 123.958672 56.714668 120.402664 C 56.714668 119.64933 56.714668 118.909332 56.714668 118.155998 C 56.757332 117.900002 56.64267 117.515999 56.770668 117.358665 C 56.770668 117.131996 56.770668 116.918663 56.770668 116.718666 C 56.770668 116.349335 56.770668 115.993332 56.770668 115.638664 C 56.799995 115.481331 56.700005 115.182671 56.828003 115.112 C 56.828003 114.956001 56.828003 114.813332 56.828003 114.685333 C 56.855995 114.301331 56.757332 113.789337 56.885338 113.505333 C 56.885338 113.362671 56.885338 113.206665 56.885338 113.078667 C 56.91333 112.765327 56.813332 112.323997 56.928001 112.110664 C 56.928001 111.997337 56.928001 111.897331 56.928001 111.783997 C 56.970665 111.5 56.855995 111.073334 56.984001 110.873329 C 57.013336 110.745331 56.91333 110.489326 57.041336 110.446663 C 64.465332 110.489326 72.031998 110.375999 79.370667 110.503998 C 79.370667 110.532005 79.370667 110.574669 79.370667 110.617332 C 79.498672 110.802666 79.384003 111.229332 79.426666 111.513336 C 79.426666 111.627998 79.426666 111.741333 79.426666 111.841331 C 79.541336 112.054665 79.44133 112.494667 79.46933 112.808006 C 79.46933 112.921333 79.46933 113.049339 79.46933 113.177338 C 79.597336 113.447998 79.498672 113.945335 79.526657 114.301331 C 79.526657 114.444 79.526657 114.585335 79.526657 114.727997 C 79.654663 115.112 79.541336 115.709335 79.584 116.178665 C 79.584 116.377335 79.584 116.562668 79.584 116.76133 C 79.71199 116.875999 79.597336 117.202667 79.639999 117.401329 C 79.639999 117.956001 79.639999 118.510666 79.639999 119.065331 C 79.639999 119.534668 79.639999 119.990669 79.639999 120.459999 C 79.76799 122.066666 79.654663 123.901329 79.682663 125.59333 C 79.682663 125.764 79.682663 125.949333 79.682663 126.134666 C 79.825333 127.342667 80.266663 128.268005 80.863998 129.021332 C 81.077332 129.177338 81.248001 129.347992 81.404007 129.548004 C 82.897324 130.742676 84.960007 131.353333 87.562668 131.425323 C 87.818665 131.425323 88.087997 131.425323 88.344009 131.425323 C 100.731995 131.425323 106.875992 131.43866 119.263992 131.43866 C 127.085327 131.069336 132.305344 128.097336 136.671997 124.270668 C 137.154663 123.745331 137.666672 123.23333 138.165329 122.721336 C 141.848007 118.411995 145.077332 112.750671 145.077332 104.844002 C 145.077332 96.936005 141.848007 91.276001 138.165329 86.980003 C 137.681335 86.482666 137.197327 85.985329 136.714661 85.473335 Z M 161.943985 80.253326 C 160.664001 78.987991 159.072006 78.333328 157.179993 78.333328 C 155.345337 78.333328 153.781326 79.001328 152.458664 80.310669 C 151.149338 81.633331 150.495987 83.197334 150.495987 85.032005 L 150.495987 124.825333 C 150.495987 126.717331 151.136002 128.310669 152.416 129.590668 C 153.681335 130.870667 155.274658 131.510666 157.179993 131.510666 C 159 131.510666 160.578674 130.855988 161.888 129.533325 C 163.210678 128.225342 163.863998 126.646667 163.863998 124.825333 L 163.863998 85.032005 C 163.863998 83.126671 163.223999 81.533325 161.943985 80.253326 Z"/>
    </g>
</svg>
